<svg width="964" height="721" xmlns="http://www.w3.org/2000/svg" xmlns:xlink="http://www.w3.org/1999/xlink" overflow="hidden"><defs><clipPath id="clip0"><rect x="207" y="-21" width="964" height="721"/></clipPath></defs><g clip-path="url(#clip0)" transform="translate(-207 21)"><path d="M819.707 282.36C671.284 202.509 601.251-42.8111 372.14 103.787 143.029 250.384 238.033 551.572 457.583 624.415 677.132 697.257 959.606 656.106 1039.1 520.788 1174.93 289.566 919.265 335.924 819.707 282.36Z" fill="#F0F0F0" fill-rule="evenodd"/><path d="M819.707 282.36C671.284 202.509 601.251-42.8111 372.14 103.787 143.029 250.384 238.033 551.572 457.583 624.415 677.132 697.257 959.606 656.106 1039.1 520.788 1174.93 289.566 919.265 335.924 819.707 282.36Z" fill="#00B050" fill-rule="evenodd"/><path d="M218 566.022C218 566.022 344.431 452.971 555.6 506.606 766.768 560.241 891.097 514.272 864.879 230 864.879 230 1161.68 266.926 1123.63 454.987 1077.45 683.228 481.356 770.316 218 566.022Z" fill="#00B050" fill-rule="evenodd"/><path d="M835 266.36C686.785 186.509 616.818-58.8111 387.981 87.7866 159.145 234.384 254.035 535.572 473.326 608.415 692.617 681.257 974.749 640.106 1054.15 504.788 1189.81 273.566 934.451 319.924 835 266.36Z" fill="#00BFC2" fill-rule="evenodd"/><path d="M835 266.36C686.785 186.509 616.818-58.8111 387.981 87.7866 159.145 234.384 254.035 535.572 473.326 608.415 692.617 681.257 974.749 640.106 1054.15 504.788 1189.81 273.566 934.451 319.924 835 266.36Z" fill="#C00000" fill-rule="evenodd"/><path d="M233 550.277C233 550.277 359.57 437.476 570.971 490.992 782.372 544.509 906.838 498.642 880.591 215 880.591 215 1177.72 251.844 1139.63 439.488 1093.39 667.223 496.637 754.118 233 550.277Z" fill="#C00000" fill-rule="evenodd"/><path d="M510 86.2381 510 196.766C509.993 206.29 501.359 214.007 490.715 214 490.711 214 490.706 214 490.702 214L227.298 214C216.657 214.015 208.017 206.308 208 196.785 208 196.778 208 196.772 208 196.766L208 86.2381C208.005 76.7135 216.637 68.9958 227.281 69 227.287 69 227.292 69 227.298 69L490.702 69C501.346 68.9874 509.986 76.6981 510 86.2227 510 86.2278 510 86.2332 510 86.2381Z" fill="#00B050" fill-rule="evenodd"/><path d="M510 86.3638 510 96.0001 208 96.0001 208 86.3638C208.005 76.7698 216.637 68.9958 227.281 69 227.287 69 227.292 69 227.298 69L490.702 69C501.346 68.9873 509.986 76.7543 510 86.3483 510 86.3534 510 86.3588 510 86.3638Z" fill="#C00000" fill-rule="evenodd"/><path d="M229 83.5001C229 85.4331 227.209 87.0001 225 87.0001 222.791 87.0001 221 85.4331 221 83.5001 221 81.567 222.791 80 225 80 227.209 80 229 81.567 229 83.5001Z" fill="#FFFFFF" fill-rule="evenodd"/><path d="M245 83.5001C245 85.4331 243.209 87.0001 241 87.0001 238.791 87.0001 237 85.4331 237 83.5001 237 81.567 238.791 80 241 80 243.209 80 245 81.567 245 83.5001Z" fill="#FFFFFF" fill-rule="evenodd"/><path d="M261 83.5001C261 85.4331 259.209 87.0001 257 87.0001 254.791 87.0001 253 85.4331 253 83.5001 253 81.567 254.791 80 257 80 259.209 80 261 81.567 261 83.5001Z" fill="#FFFFFF" fill-rule="evenodd"/><path d="M248.597 112 309.408 112C311.392 112 313 113.426 313 115.185L313 158.815C313 160.574 311.392 162 309.408 162L248.597 162C246.61 162 245 160.573 245 158.812L245 115.189C244.998 113.43 246.604 112.002 248.588 112 248.591 112 248.594 112 248.597 112Z" fill="#FFFFFF" fill-rule="evenodd"/><path d="M468.726 185 245.274 185C242.914 185 241 183.433 241 181.5L241 181.5C241 179.567 242.914 178 245.274 178L468.726 178C471.087 178 473 179.567 473 181.5L473 181.5C473 183.433 471.087 185 468.726 185Z" fill="#FFFFFF" fill-rule="evenodd"/><path d="M468.729 157 333.271 157C330.912 157 329 155.209 329 153L329 153C329 150.791 330.912 149 333.271 149L468.729 149C471.088 149 473 150.791 473 153L473 153C473 155.209 471.088 157 468.729 157Z" fill="#FFFFFF" fill-rule="evenodd"/><path d="M416.749 130 333.251 130C330.903 130 329 128.209 329 126L329 126C329 123.791 330.903 122 333.251 122L416.749 122C419.097 122 421 123.791 421 126L421 126C421 128.209 419.097 130 416.749 130Z" fill="#FFFFFF" fill-rule="evenodd"/><path d="M833 72C837.934 66.9115 843.161 62.0588 848.668 57.4624 859.39 49.2356 871.686 34.6903 911.014 45.4107 914.059 46.2884 917.052 47.307 919.976 48.4622 923.427 49.7743 934.183 49.8051 945.18 42.0168 962.656 29.6341 969.492 20.2951 993.436 20.0027 1021.3 19.6641 1025.68 50.6516 1047.35 58.5823 1061.15 63.6307 1097.48 68.6484 1105 70.8957Z" fill="#00B050" fill-rule="evenodd"/><path d="M618.973 164.211 616.992 159 615.01 164.211C613.041 168.886 609.057 172.609 604 174.5L604 174.5C609.057 176.391 613.041 180.113 615.01 184.789L616.992 190 618.973 184.789C620.947 180.112 624.937 176.391 630 174.504L630 174.504C624.935 172.616 620.945 168.891 618.973 164.211Z" fill="#FFFFFF" fill-rule="evenodd"/><path d="M437.962 456.211 435.979 451 434.017 456.211C432.047 460.887 428.061 464.611 423 466.5L423 466.5C428.061 468.389 432.047 472.113 434.017 476.789L436 482 437.983 476.789C439.953 472.113 443.939 468.389 449 466.5L449 466.5C443.931 464.615 439.937 460.891 437.962 456.211Z" fill="#FFFFFF" fill-rule="evenodd"/><path d="M980.797 425.363 979.498 422 978.203 425.363C976.917 428.378 974.311 430.779 971 432L971 432C974.311 433.221 976.917 435.622 978.203 438.637L979.498 442 980.797 438.637C982.083 435.622 984.689 433.221 988 432L988 432C984.689 430.779 982.083 428.378 980.797 425.363Z" fill="#FFFFFF" fill-rule="evenodd"/><path d="M350.373 256.363 348.998 253 347.627 256.363C346.263 259.379 343.504 261.781 340 263L340 263C343.504 264.22 346.263 266.621 347.627 269.637L348.998 273 350.373 269.637C351.737 266.621 354.497 264.22 358 263L358 263C354.497 261.78 351.737 259.379 350.373 256.363Z" fill="#FFFFFF" fill-rule="evenodd"/><path d="M779.562-20 653.451-20C646.582-20.0063 641.009-15.078 641-8.99232 641-8.9898 641-8.98728 641-8.98466L641 51.3699C641.004 57.4555 646.573 62.3876 653.443 62.3853 653.447 62.3853 653.447 62.3853 653.451 62.3853L660.238 62.3853 660.238 90.0001 691.41 62.3853 779.545 62.3853C786.414 62.3937 791.991 57.4669 792 51.3814 792 51.3776 792 51.3737 792 51.3699L792-8.98466C791.996-15.0689 786.431-20 779.562-20Z" fill="#00B050" fill-rule="evenodd"/><path d="M671.149 39 700.851 39C703.141 39 705 40.567 705 42.5L705 42.5C705 44.433 703.141 46 700.851 46L671.149 46C668.859 46 667 44.433 667 42.5L667 42.5C667 40.567 668.859 39 671.149 39Z" fill="#FFFFFF" fill-rule="evenodd"/><path d="M671.146 20 725.854 20C728.142 20 730 21.7908 730 24.0001L730 24.0001C730 26.2092 728.142 28 725.854 28L671.146 28C668.858 28 667 26.2092 667 24.0001L667 24.0001C667 21.7908 668.858 20 671.146 20Z" fill="#FFFFFF" fill-rule="evenodd"/><path d="M671.134 2 764.866 2C767.148 2 769 3.79081 769 6.00006L769 6.00006C769 8.20919 767.148 10 764.866 10L671.134 10C668.852 10 667 8.20919 667 6.00006L667 6.00006C667 3.79081 668.852 2 671.134 2Z" fill="#FFFFFF" fill-rule="evenodd"/><path d="M702 498 847.255 498C876.396 497.992 900.87 478.421 904.054 452.567L925 258 779.831 258 776.866 370.815Z" fill="#DFE2EF" fill-rule="evenodd"/><path d="M701.333 496.11 720.601 495.484 742.714 494.885C751.253 494.608 760.889 494.532 771.395 494.324L805.33 493.737 843.204 493.437 845.67 493.437 846.656 493.437 847.895 493.376C849.483 493.264 851.338 493.283 852.733 493.061 854.127 492.838 855.543 492.719 857.006 492.431 858.47 492.143 859.967 491.809 861.431 491.425 867.344 489.819 872.887 487.277 877.785 483.913 887.899 477.065 894.859 467.16 897.363 456.053L898.086 451.906 898.599 447.243 899.623 437.93 901.654 419.434 905.657 383.464 913.257 319.734 919.042 274.669 921.349 257.594C921.59 255.962 923.264 254.812 925.093 255.025 926.832 255.229 928.101 256.599 927.994 258.162L926.616 275.318 922.648 320.517 916.524 384.37 912.78 420.359 910.826 438.863 909.844 448.18 909.354 452.847C909.108 454.613 908.786 456.257 908.493 457.97 904.116 478.509 887.129 495.092 864.594 500.822 862.812 501.268 860.996 501.591 859.206 501.975 857.415 502.359 855.431 502.47 853.559 502.7 851.687 502.931 850.163 502.862 848.455 502.958L847.215 503 845.726 503 843.26 503 805.386 502.7 771.451 502.113C760.941 501.905 751.309 501.825 742.77 501.552L720.657 500.953 701.389 500.327C700.085 500.342 699.013 499.409 699 498.242 698.983 497.078 700.029 496.126 701.333 496.11Z" fill="#3D415B" fill-rule="evenodd"/><path d="M785.5 502.5 785.5 639.5" stroke="#3D415B" stroke-width="10.7306" stroke-miterlimit="8" fill="none" fill-rule="evenodd"/><path d="M812 379 344 379 344 373 812 373Z" fill="#3D415B" fill-rule="evenodd"/><path d="M756.991 665 762 680.585 737.624 687 730 667.756 756.991 665Z" fill="#FFE0BC" fill-rule="evenodd"/><path d="M611 653 611 666 632.587 666 635 653 611 653Z" fill="#FFE0BC" fill-rule="evenodd"/><path d="M775.574 284.671 743.148 355.664 742.428 357.241C740.542 361.345 736.032 364.019 731.035 364L638.702 363.412C634.967 363.381 631.967 360.673 632 357.36 632.03 354.407 634.478 351.913 637.772 351.48L729.14 339.637 717.028 347.969 738.857 273.851C741.563 264.664 752.154 259.162 762.509 261.563 772.869 263.962 779.071 273.356 776.366 282.543 776.151 283.265 775.884 283.976 775.574 284.671Z" fill="#EFC9A3" fill-rule="evenodd"/><path d="M648.613 349.583 617.119 349C608.901 349.415 602.602 355.67 603.02 363L649 363Z" fill="#EFC9A3" fill-rule="evenodd"/><path d="M724 293.002 774.399 304 782.668 263.86C784.749 253.284 776.846 243.202 765.008 241.341 764.716 241.295 764.423 241.254 764.126 241.219L764.126 241.219C753.798 239.839 743.792 245.092 740.116 253.827Z" fill="#00B050" fill-rule="evenodd"/><path d="M776.868 371 621.283 441.117C606.845 447.626 598.123 461.113 599.07 475.468L610.789 653 634.661 653 666.869 463.053 788 387.521Z" fill="#303348" fill-rule="evenodd"/><path d="M748.947 128.273C748.947 128.273 792.175 115.259 814.889 151.51 816.173 153.628 817.685 155.628 819.412 157.483 824.026 162.304 833.627 171.192 844.246 174.071 886.315 185.514 912.941 255.941 829.199 262.208 724.402 270.054 694.644 251.753 709.635 214.762 720.327 188.383 710.781 169.654 710.781 169.654Z" fill="#282C3C" fill-rule="evenodd"/><path d="M783.928 223 761.628 231.869C748.346 237.137 739.843 248.967 740.002 261.958 740.346 288.135 746.989 353.128 771.723 378L847.117 378C858.806 331.954 852.068 261.175 852.068 261.175 852.824 243.824 838.55 228.863 819.269 226.789Z" fill="#00B050" fill-rule="evenodd"/><path d="M785.188 244.913 785.188 244.913C777.31 245.728 770.159 240.751 769.151 233.75L763 190.975 791.77 188 797.882 230.48C798.894 237.541 793.282 243.995 785.347 244.895 785.296 244.901 785.244 244.907 785.188 244.913Z" fill="#EFC9A3" fill-rule="evenodd"/><path d="M716.692 159.074 787.16 149.875 787.16 149.875 792.018 187.092C794.243 204.141 780.528 219.988 761.378 222.488L760.223 222.638C741.082 225.137 723.763 213.346 721.538 196.303L716.679 159.076 716.679 159.076Z" fill="#FFE0BC" fill-rule="evenodd"/><path d="M794 173.563 788.007 184.775C788.007 184.775 780.037 191.011 777.781 175.342 775.868 162.069 765.201 164.373 765.201 164.373 765.201 164.373 728.654 189.345 707.184 172.21 690.241 158.678 717.624 133.935 748.957 128L790.049 144.219Z" fill="#282C3C" fill-rule="evenodd"/><path d="M807.331 182.225C808.02 187.915 803.397 193.155 797.007 193.928 790.616 194.701 784.877 190.715 784.189 185.024 783.5 179.334 788.123 174.094 794.514 173.321 800.904 172.548 806.643 176.534 807.331 182.225Z" fill="#FFE0BC" fill-rule="evenodd"/><path d="M797.844 187.998C797.968 189.022 797.136 189.966 795.985 190.105 794.834 190.244 793.8 189.526 793.677 188.502 793.553 187.477 794.385 186.533 795.536 186.394 796.687 186.255 797.72 186.973 797.844 187.998Z" fill="#FFFFFF" fill-rule="evenodd"/><path d="M734 204.635 753.979 201C753.979 201 754.939 208.434 743.989 209.764 739.659 210.752 735.216 208.549 734.061 204.843 734.039 204.774 734.017 204.705 734 204.635Z" fill="#FFFFFF" fill-rule="evenodd"/><path d="M846.778 378 771.454 378 650.954 442.827C636.747 450.47 631.117 466.31 637.8 479.839L730.298 667 757.043 664.2 707.328 483.597C749.05 482.027 826.528 476.416 846.76 456.329 881.04 422.323 846.778 378 846.778 378Z" fill="#3D415B" fill-rule="evenodd"/><path d="M588.955 260.015 632 363 492.123 363 452.305 265.976C451.358 263.668 452.692 261.113 455.284 260.27 455.832 260.091 456.412 260 456.996 260L588.955 260Z" fill="#C2DFF1" fill-rule="evenodd"/><path d="M588 260 594.655 260C598.235 260.002 601.433 261.985 602.663 264.968L643 362 630.775 362Z" fill="#A5C3D3" fill-rule="evenodd"/><path d="M493.009 362 631 362 631 362 631 372 631 372 503.076 372C497.511 372 493 367.908 493 362.86L493 362 493.009 362Z" fill="#A5C3D3" fill-rule="evenodd"/><path d="M632 373 718.409 373C721.497 373 724 370.762 724 368L724 368C724 365.239 721.497 363 718.409 363L632 363 632 373Z" fill="#A5C3D3" fill-rule="evenodd"/><path d="M554.019 310.779C556.375 317.901 552.944 325.442 546.355 327.622 539.765 329.802 532.514 325.796 530.157 318.674 527.801 311.553 531.232 304.012 537.821 301.832 544.41 299.652 551.662 303.658 554.019 310.779Z" fill="#ECF2F5" fill-rule="evenodd"/><path d="M834.577 282.219 802.145 355.427 801.431 357.043C799.553 361.262 794.997 364.019 789.943 364L697.795 363.455C694.034 363.451 690.991 360.704 691 357.323 691.004 354.281 693.493 351.704 696.841 351.272L787.996 339.136 775.794 347.697 797.516 271.37C800.09 261.955 810.663 256.198 821.133 258.511 831.603 260.825 838.003 270.333 835.432 279.749 835.402 279.857 835.368 279.966 835.338 280.074 835.132 280.802 834.878 281.518 834.577 282.219Z" fill="#FFE0BC" fill-rule="evenodd"/><path d="M705.597 348.581 674.807 348C666.699 348.486 660.547 354.736 661.026 362L706 362Z" fill="#FCD8B6" fill-rule="evenodd"/><path d="M783 291.822 833.38 303 841.646 262.21C843.812 251.497 835.83 241.246 823.816 239.314 823.584 239.276 823.348 239.242 823.111 239.211L823.111 239.211C812.714 237.848 802.677 243.205 799.11 252.021Z" fill="#00B050" fill-rule="evenodd"/><path d="M721.685 672.083 709.887 682.156 683.381 687.752C680.651 688.326 678.442 690.057 677.51 692.351L676.165 695.668C675.634 696.974 676.428 698.402 677.937 698.858 678.265 698.958 678.61 699.007 678.956 698.999L764.28 697.209C766.941 697.16 769.055 695.254 768.999 692.952 768.999 692.866 768.995 692.784 768.986 692.698L762.257 671.807 749.364 674.474C745.059 675.709 740.345 675.288 736.424 673.314L731.839 671.005C728.56 669.337 724.398 669.778 721.685 672.083Z" fill="#29323D" fill-rule="evenodd"/><path d="M599.745 657.159 587.932 667.577 561.39 673.365C558.656 673.959 556.443 675.75 555.512 678.123L554.164 681.553C553.634 682.904 554.429 684.382 555.939 684.853 556.267 684.957 556.612 685.007 556.959 684.999L634.274 683.541C636.94 683.491 639.055 681.519 638.999 679.138 638.999 679.053 638.995 678.964 638.986 678.879L636.977 656.788 627.445 659.616C623.133 660.894 618.414 660.458 614.487 658.417L609.896 656.028C606.614 654.315 602.455 654.778 599.745 657.159Z" fill="#29323D" fill-rule="evenodd"/><path d="M941.234 212C933.925 212 928 206.724 928 200.216L928 145.784C928 139.276 933.925 134 941.234 134L1156.77 134C1164.07 134 1170 139.276 1170 145.784L1170 200.216C1170 206.724 1164.07 212 1156.77 212Z" fill="#00B050" fill-rule="evenodd"/><path d="M1139.82 196 1095.18 196C1092.87 196 1091 194.328 1091 192.265L1091 154.739C1091 152.674 1092.87 151 1095.18 151L1139.82 151C1142.13 151 1144 152.672 1144 154.735L1144 192.261C1144 194.326 1142.13 196 1139.82 196Z" fill="#FFFFFF" fill-rule="evenodd"/><path d="M957.622 160 1073.38 160C1075.38 160 1077 158.657 1077 157L1077 157C1077 155.343 1075.38 154 1073.38 154L957.622 154C955.621 154 954 155.343 954 157L954 157C954 158.657 955.621 160 957.622 160Z" fill="#FFFFFF" fill-rule="evenodd"/><path d="M1032.65 176C1030.63 176 1029 174.658 1029 173.002L1029 172.998C1029 171.342 1030.63 170 1032.65 170L1073.35 170C1075.37 170 1077 171.342 1077 172.998L1077 173.002C1077 174.658 1075.37 176 1073.35 176Z" fill="#FFFFFF" fill-rule="evenodd"/><path d="M957.651 176C955.635 176 954 174.658 954 173.002L954 172.998C954 171.342 955.635 170 957.651 170L1006.35 170C1008.37 170 1010 171.342 1010 172.998L1010 173.002C1010 174.658 1008.37 176 1006.35 176Z" fill="#FFFFFF" fill-rule="evenodd"/><path d="M986.621 193 1073.38 193C1075.38 193 1077 191.433 1077 189.5L1077 189.5C1077 187.567 1075.38 186 1073.38 186L986.621 186C984.621 186 983 187.567 983 189.5L983 189.5C983 191.433 984.621 193 986.621 193Z" fill="#FFFFFF" fill-rule="evenodd"/><path d="M422.411 342C422.411 342 457.248 342.113 450.011 309 450.011 309.012 413.462 312.343 422.411 342Z" fill="#33D18D" fill-rule="evenodd"/><path d="M417.542 340C417.542 340 381.544 340.115 389.022 307 389.022 306.996 426.789 310.335 417.542 340Z" fill="#33D18D" fill-rule="evenodd"/><path d="M419.436 340C419.436 340 393.051 316.615 424.188 296 424.166 296 449.168 323.196 419.436 340Z" fill="#33D18D" fill-rule="evenodd"/><path d="M448 337 390 337 399.235 373 438.025 373 448 337Z" fill="#8B4200" fill-rule="evenodd"/><path d="M563.5 379.5 563.5 631.5" stroke="#3D415B" stroke-width="8.59822" stroke-miterlimit="8" fill="none" fill-rule="evenodd"/></g></svg>