<svg width="911" height="720" xmlns="http://www.w3.org/2000/svg" xmlns:xlink="http://www.w3.org/1999/xlink" overflow="hidden"><defs><clipPath id="clip0"><rect x="184" y="-1" width="911" height="720"/></clipPath></defs><g clip-path="url(#clip0)" transform="translate(-184 1)"><path d="M497.765 216.415C670.22 154.326 800.032-116.687 1003.34 101.62 1206.66 319.927 1037.96 650.786 793.384 689.92 548.814 729.054 265.6 622.415 214.753 448.347 127.864 150.928 382.076 258.066 497.765 216.415Z" fill="#F0F0F0" fill-rule="evenodd"/><path d="M485.091 198.409C657.743 136.324 787.71-134.69 991.245 83.6255 1194.78 301.941 1025.89 632.786 781.051 671.92 536.208 711.054 252.679 604.416 201.776 430.349 114.783 132.922 369.274 240.059 485.091 198.409Z" fill="#C00000" fill-rule="evenodd"/><path d="M744.253 102.043 742.499 97 740.745 102.043C739.002 106.567 735.476 110.17 730.999 112L730.999 112C735.476 113.83 739.002 117.432 740.745 121.957L742.499 127 744.253 121.957C745.996 117.433 749.522 113.83 753.999 112L753.999 112C749.522 110.17 745.996 106.567 744.253 102.043Z" fill="#FFFFFF" fill-rule="evenodd"/><path d="M549.253 467.043 547.499 462 545.745 467.043C544.002 471.567 540.476 475.17 535.999 477L535.999 477C540.476 478.83 544.002 482.433 545.745 486.957L547.499 492 549.253 486.957C550.996 482.432 554.522 478.83 558.999 477L558.999 477C554.522 475.17 550.996 471.568 549.253 467.043Z" fill="#FFFFFF" fill-rule="evenodd"/><path d="M1022.63 234.365 1021.49 231 1020.34 234.365C1019.21 237.375 1016.91 239.772 1014 240.992L1014 240.992C1016.92 242.213 1019.22 244.617 1020.35 247.635L1021.5 251 1022.64 247.635C1023.78 244.617 1026.08 242.213 1029 240.992L1029 240.992C1026.08 239.778 1023.77 237.38 1022.63 234.365Z" fill="#FFFFFF" fill-rule="evenodd"/><path d="M472.642 271.194 471.499 268 470.356 271.194C469.22 274.06 466.919 276.341 463.999 277.5L463.999 277.5C466.919 278.659 469.219 280.94 470.356 283.806L471.499 287 472.642 283.806C473.779 280.94 476.079 278.659 478.999 277.5L478.999 277.5C476.079 276.341 473.779 274.06 472.642 271.194Z" fill="#FFFFFF" fill-rule="evenodd"/><path d="M394 717 400.444 717 453 461 439.688 461 394 717Z" fill="#C7C7C7" fill-rule="evenodd"/><path d="M889 717 882.556 717 830 461 843.313 461 889 717Z" fill="#C7C7C7" fill-rule="evenodd"/><path d="M385.155 306.718C383.079 309.075 381.647 311.928 380.999 315 381.842 312.693 383.333 310.679 385.294 309.198 387.934 307.522 391.442 307.75 394.105 306.108 396.428 304.297 398.137 301.815 398.999 299 397.012 300.747 394.7 302.085 392.195 302.939 389.524 303.47 387.073 304.785 385.155 306.718Z" fill="#482C3B" fill-rule="evenodd"/><path d="M408 594 418 594 418 689 408 689Z" fill="#A6AEBA" fill-rule="evenodd"/><path d="M405 580 421 580 421 594 405 594Z" fill="#D2DCEB" fill-rule="evenodd"/><path d="M407 652 419 652 419 682 407 682Z" fill="#D2DCEB" fill-rule="evenodd"/><path d="M405 682 421 682 421 695 405 695Z" fill="#D2DCEB" fill-rule="evenodd"/><path d="M394 554 432 554 432 580 394 580Z" fill="#A6AEBA" fill-rule="evenodd"/><path d="M465.977 546C467.094 546 468 546.929 468 548.075L468 563.925C468 565.071 467.094 566 465.977 566L364.023 566C362.906 566 362 565.071 362 563.925L362 548.075C362 546.929 362.906 546 364.023 546Z" fill="#A6AEBA" fill-rule="evenodd"/><path d="M374.944 709 405 693.681 405 683 371 706.428 374.944 709Z" fill="#A6AEBA" fill-rule="evenodd"/><path d="M378 712C378 715.866 374.866 719 371 719 367.134 719 364 715.866 364 712 364 708.134 367.134 705 371 705 374.866 705 378 708.134 378 712Z" fill="#A6AEBA" fill-rule="evenodd"/><path d="M420 712C420 715.866 416.866 719 413 719 409.134 719 406 715.866 406 712 406 708.134 409.134 705 413 705 416.866 705 420 708.134 420 712Z" fill="#A6AEBA" fill-rule="evenodd"/><path d="M451.052 709 421 693.681 421 683 455 706.428 451.052 709Z" fill="#A6AEBA" fill-rule="evenodd"/><path d="M462 712C462 715.866 458.866 719 455 719 451.134 719 448 715.866 448 712 448 708.134 451.134 705 455 705 458.866 705 462 708.134 462 712Z" fill="#A6AEBA" fill-rule="evenodd"/><path d="M411 689 415 689 415 711 411 711Z" fill="#A6AEBA" fill-rule="evenodd"/><path d="M344.374 556.996C340.863 557.117 337.749 554.757 336.911 551.342 334.348 540.761 329.692 520.992 329.587 471.654 329.068 433.397 323.926 395.344 314.273 358.324 313.191 353.489 315.378 348.511 319.67 346.042L319.67 346.042C321.992 344.704 324.625 344 327.304 344L421.828 344C421.828 344 460.686 413.59 465.783 437.435 470.881 461.279 477.999 552.81 477.999 552.81Z" fill="#D0DFE1" fill-rule="evenodd"/><path d="M346.707 557C346.707 557 337.823 539.686 337.669 471.552 337.549 415.45 326.334 369.232 323.1 351.382 322.482 347.974 324.761 344.713 328.189 344.099 328.564 344.032 328.944 343.999 329.324 344L430.48 344C430.48 344 469.579 413.53 474.708 437.354 479.837 461.179 486.999 552.631 486.999 552.631Z" fill="#B0BEBF" fill-rule="evenodd"/><path d="M438.999 557 342.917 557C340.201 557 337.999 554.779 337.999 552.04L337.999 552.04 337.999 536 438.999 536 438.999 556.981 438.999 556.981Z" fill="#D0DFE1" fill-rule="evenodd"/><path d="M503.846 557 361.999 557 361.999 542.222C361.993 538.792 364.742 536.006 368.14 536 368.144 536 368.148 536 368.151 536L503.846 536C507.244 536 509.999 538.781 509.999 542.211L509.999 542.211 509.999 550.778C510.003 554.208 507.252 556.992 503.854 556.996L503.854 556.996Z" fill="#B0BEBF" fill-rule="evenodd"/><path d="M376.195 319.552C376.195 319.552 390.845 314.874 392.319 308.446 393.519 303.223 395.432 287 395.432 287L420.983 287C420.477 293.386 420.477 299.802 420.983 306.188 423.413 317.858 437.929 321.693 437.929 321.693L439.999 358.159 402.339 390 365.999 353.182Z" fill="#FFE0BC" fill-rule="evenodd"/><path d="M434.052 248.255C440.438 256.792 439.137 257.998 438.26 269.757 437.639 278.009 435.943 286.144 433.216 293.955 431.495 298.387 422.488 317.445 406.429 310.488 397.287 306.258 389.653 299.33 384.55 290.632 382.199 283.759 381.041 276.534 381.126 269.269 380.962 261.447 380.925 251.302 381.204 245.469 382.2 224.872 422.369 232.634 434.052 248.255Z" fill="#FFE0BC" fill-rule="evenodd"/><path d="M476.777 491.928C490.748 488.911 498.529 493.387 506.9 503.396 515.272 513.405 511.922 537.596 506.9 557.613 501.879 577.63 482.628 711 482.628 711L468.402 711C468.402 711 464.748 658.449 462.239 620.079 459.73 581.71 468.323 526.748 468.323 526.748L413.999 491.939C413.999 491.939 464.23 494.637 476.777 491.928Z" fill-rule="evenodd"/><path d="M475.653 472.376C486.239 482.38 517.401 499.245 511.187 520.097L469.439 538C469.439 538 427.02 522.44 414.008 491.848L400.999 461.256 428.955 450Z" fill-rule="evenodd"/><path d="M444.975 499.206C452.716 504.786 473.637 513.973 469.451 537.721 467.316 549.833 433.096 622.993 414.404 653.738 404.877 669.409 387.91 702.205 387.91 702.205L371.999 706C371.999 706 384.257 666.192 392.63 629.424 401.003 592.657 425.385 548.776 425.385 548.776 415.363 542.038 404.867 536.03 393.979 530.799 380.578 524.949 373.37 522.549 393.468 503.346 413.566 484.143 429.894 488.339 444.975 499.206Z" fill-rule="evenodd"/><path d="M475.909 386.019C477.6 394.307 480.361 402.341 484.12 409.919 487.441 415.718 555.999 441 555.999 441L515.952 441C515.952 441 477.835 436 466.959 421.372 459.064 410.144 452.056 398.318 445.999 386L475.909 386Z" fill="#F7D4B2" fill-rule="evenodd"/><path d="M451.554 327C458.613 330.15 465.134 348.044 470.347 363.291 473.109 370.521 475.006 378.054 475.999 385.733 475.999 385.733 457.759 396.197 448.083 393.58 448.083 393.58 438.895 360.461 445.222 343.731Z" fill="#FFC000" fill-rule="evenodd"/><path d="M415.784 473.46C435.862 472.659 455.925 472.173 475.999 472.259 466.245 465.953 457.617 461.558 455.741 459.688 451.562 455.521 452.98 418.394 456.052 406.859 459.125 395.323 458.937 381.963 456.713 376.012 454.488 370.061 451.295 327.14 451.295 327.14L437.756 322.125C437.756 322.125 441.905 353.263 409.088 353.263 376.138 353.263 375.996 320 375.996 320L354.987 324.638C354.987 324.638 353.438 365.184 354.218 383.582 354.999 401.981 363.766 433.849 366.272 450.535 368.223 463.51 364.61 471.443 362.123 481 379.305 474.855 397.568 472.289 415.784 473.46Z" fill="#FFC000" fill-rule="evenodd"/><path d="M389.516 699.238C385.068 698.324 383.482 700.151 379.468 702.899 376.933 704.571 374.009 705.518 370.999 705.643L370.999 718 401.999 718Z" fill="#8B4200" fill-rule="evenodd"/><path d="M484.913 702C484.913 702 484.46 706.081 477.754 707.922 473.611 708.878 469.266 707.506 466.486 704.363L464.999 717.692 517.999 718Z" fill="#8B4200" fill-rule="evenodd"/><path d="M485.723 437.8C479.756 437.085 474.021 431.453 450.892 431.175 437.747 429.355 424.714 426.797 411.852 423.512 404.076 421.421 396.648 418.189 389.805 413.92 389.805 413.92 381.328 382.057 378.095 361.847 368.694 360.805 359.319 359.591 350.003 358 349.672 383.238 367.404 428.11 373.307 432.585 384.797 441.301 411.799 440.857 418.285 440.985 433.306 441.259 497.313 443 497.313 443 497.313 443 502.232 439.778 485.723 437.8Z" fill="#FFE0BC" fill-rule="evenodd"/><path d="M384.999 393.863C384.999 393.863 376.469 343.347 374.001 338.032 361.222 310.561 343.67 325.199 346.255 346.455 347.352 355.495 348.051 378.894 352.603 400.986 363.806 401.208 374.904 398.768 384.999 393.863Z" fill="#FFC000" fill-rule="evenodd"/><path d="M472 443 497.5 443 523 354 503.612 354 472 443Z" fill="#A6AEBA" fill-rule="evenodd"/><path d="M480 443 578.708 443 604 354 505.292 354 480 443Z" fill="#D2DCEB" fill-rule="evenodd"/><path d="M465 441 579 441 579 448 465 448Z" fill="#D2DCEB" fill-rule="evenodd"/><path d="M408 441 465 441 465 448 408 448Z" fill="#A6AEBA" fill-rule="evenodd"/><path d="M548.828 394.921C554.177 397.177 556.192 404.508 553.329 411.296 550.467 418.084 543.81 421.757 538.461 419.502 533.112 417.246 531.096 409.914 533.959 403.127 536.822 396.339 543.479 392.665 548.828 394.921Z" fill="#A6AEBA" fill-rule="evenodd"/><path d="M361.745 481.175C357.978 499.128 366.873 538.299 425.616 548.535L459.147 562C467.254 552.07 470.591 539.122 468.284 526.547 464.083 505.976 440.558 498.159 425.059 473.287 425.059 473.287 400.709 463.188 385.063 468.589 376.547 471.257 368.63 475.53 361.745 481.175Z" fill-rule="evenodd"/><path d="M439.61 260.4C439.61 260.4 432.512 260.674 423.791 247.667 423.791 247.667 424.729 253.558 416.247 261.494 407.765 269.43 400.156 267.28 398.878 271.112 398.101 273.468 397.632 275.914 397.481 278.388 396.269 278.174 395.231 277.405 394.682 276.314 394.041 274.276 393.057 272.361 391.772 270.647 387.898 268.108 381.239 271.512 383.373 278.976 384.617 282.185 386.872 284.912 389.805 286.751 389.707 299.485 394.958 303.41 394.958 303.41 394.958 303.41 386.256 307.323 381.807 305.53 375.447 302.949 373.816 298.975 374.047 291.86 370.839 291.233 367.88 289.71 365.519 287.47 356.632 278.74 366.881 253.873 370.998 250.802 370.998 250.802 361.282 237.18 373.491 228.031 385.878 218.747 390.664 233.754 390.664 233.754 394.776 230.683 411.643 229.634 420.235 232.817 444.418 241.746 439.61 260.4 439.61 260.4Z" fill="#482C3B" fill-rule="evenodd"/><path d="M423.299 247.5C424.037 252.366 423.336 263.659 410.499 272.5" stroke="#482C3B" stroke-width="0.937218" stroke-miterlimit="8" fill="none" fill-rule="evenodd"/><path d="M958 594 967 594 967 689 958 689Z" fill="#A6AEBA" fill-rule="evenodd"/><path d="M955 580 970 580 970 594 955 594Z" fill="#D2DCEB" fill-rule="evenodd"/><path d="M957 652 968 652 968 682 957 682Z" fill="#D2DCEB" fill-rule="evenodd"/><path d="M955 682 970 682 970 695 955 695Z" fill="#D2DCEB" fill-rule="evenodd"/><path d="M943 554 982 554 982 580 943 580Z" fill="#A6AEBA" fill-rule="evenodd"/><path d="M1011.96 546C1013.09 546 1014 546.929 1014 548.075L1014 563.925C1014 565.071 1013.09 566 1011.96 566L909.042 566C907.914 566 907 565.071 907 563.925L907 548.075C907 546.929 907.914 546 909.042 546Z" fill="#A6AEBA" fill-rule="evenodd"/><path d="M1000.05 709 970 693.681 970 683 1004 706.428 1000.05 709Z" fill="#A6AEBA" fill-rule="evenodd"/><path d="M1011 712C1011 715.866 1007.87 719 1004 719 1000.13 719 997 715.866 997 712 997 708.134 1000.13 705 1004 705 1007.87 705 1011 708.134 1011 712Z" fill="#A6AEBA" fill-rule="evenodd"/><path d="M970 712C970 715.866 966.642 719 962.5 719 958.358 719 955 715.866 955 712 955 708.134 958.358 705 962.5 705 966.642 705 970 708.134 970 712Z" fill="#A6AEBA" fill-rule="evenodd"/><path d="M924.944 709 955 693.681 955 683 921 706.428 924.944 709Z" fill="#A6AEBA" fill-rule="evenodd"/><path d="M928 712C928 715.866 924.866 719 921 719 917.134 719 914 715.866 914 712 914 708.134 917.134 705 921 705 924.866 705 928 708.134 928 712Z" fill="#A6AEBA" fill-rule="evenodd"/><path d="M961 689 964 689 964 711 961 711Z" fill="#A6AEBA" fill-rule="evenodd"/><path d="M1031.47 556.996C1034.97 557.117 1038.08 554.757 1038.92 551.342 1041.48 540.761 1046.13 520.992 1046.24 471.654 1046.35 417.194 1074.83 375.781 1078.72 358.324 1079.81 353.489 1077.62 348.511 1073.33 346.042L1073.33 346.042C1071.01 344.704 1068.39 344 1065.71 344L954.104 344C954.104 344 915.291 413.59 910.2 437.435 905.109 461.279 897.999 552.81 897.999 552.81Z" fill="#D0DFE1" fill-rule="evenodd"/><path d="M1028.28 557C1028.28 557 1037.1 539.686 1037.25 471.552 1037.37 415.45 1065.69 369.232 1068.9 351.382 1069.51 347.974 1067.25 344.713 1063.85 344.099 1063.47 344.032 1063.1 343.999 1062.72 344L945.103 344C945.103 344 906.291 413.53 901.2 437.354 896.108 461.179 888.999 552.631 888.999 552.631Z" fill="#B0BEBF" fill-rule="evenodd"/><path d="M904.999 536 1037 536 1037 552.035C1037 554.777 1034.8 557 1032.08 557L904.999 557 904.999 536 904.999 536Z" fill="#D0DFE1" fill-rule="evenodd"/><path d="M872.131 536 915.852 536C919.247 536 921.999 538.782 921.999 542.214L921.999 542.214 921.999 557 872.116 557C868.732 556.985 865.997 554.207 865.999 550.786L865.999 542.222C865.995 538.793 868.739 536.008 872.131 536Z" fill="#B0BEBF" fill-rule="evenodd"/><path d="M928.707 323.208C919.57 332.296 918.943 377.961 909.709 401.663 909.709 401.663 846.712 426.268 817.999 433.494L827.966 444C827.966 444 913.321 423.503 924.144 416.307 940.69 405.31 950.308 360.811 951.885 338.55 953.463 316.29 938.257 313.712 928.707 323.208Z" fill="#F7D4B2" fill-rule="evenodd"/><path d="M825.011 434.883 817.986 433.143C817.986 433.143 803.535 431.753 798.908 431.059 794.282 430.366 788.737 435.925 782.431 438.009 778.074 439.574 773.903 441.66 769.999 444.225L775.047 444.225 785.343 446 794.625 444.225C800.421 443.641 806.256 443.641 812.052 444.225 817.353 444.818 822.698 444.818 827.999 444.225Z" fill="#F7D4B2" fill-rule="evenodd"/><path d="M887.773 481.113C868.123 487.582 844.021 497.955 836.965 504.476 829.909 510.998 816.004 520.257 827.217 556.097 834.39 578.996 865.616 695 865.616 695L881.442 692.202C881.442 692.202 875.821 624.988 870.188 574.702 867.458 550.326 866.53 543.527 866.53 543.527L887.773 534.935C914.703 523.943 905.472 478 905.472 478Z" fill="#F7D4B2" fill-rule="evenodd"/><path d="M843.596 497.574C836.606 504.081 831.662 501.903 821.158 537.847 814.453 560.813 789.999 676.639 789.999 676.639L804.606 683C824.359 627.622 824.333 627.69 847.414 582.755 854.355 568.993 859.682 554.475 863.289 539.489L905.955 536.926C932.63 525.959 923.486 487 923.486 487 923.486 487 850.589 491.052 843.596 497.574Z" fill="#FFE0BC" fill-rule="evenodd"/><path d="M1005.56 462.847C1005.56 481.676 1019.13 502.464 1003.4 523.854 989.168 543.214 905.951 537.076 905.951 537.076 905.951 537.076 917.689 516.676 906.544 501.232 899.413 491.362 882.999 482.222 882.999 482.222L929.533 467.133 966.907 438Z" fill="#FFD04D" fill-rule="evenodd"/><path d="M958.999 319.363C956.502 327.916 938.804 327.748 925.733 311.777 912.663 295.807 903.198 268.586 916.238 249.356 929.279 230.126 946.721 267.363 952.663 287.179 956.027 297.617 958.154 308.42 958.999 319.363Z" fill="#B56537" fill-rule="evenodd"/><path d="M917.592 248.774C914.044 252.99 917.441 269.048 918.062 271.433 919.264 276.045 916.932 282.393 918.262 283.463 919.605 284.056 921.072 284.314 922.536 284.217 922.777 284.273 928.995 296.473 930.095 299.001 931.771 302.848 940.787 296.032 943.513 298.918 945.491 301.013 945.577 304.89 946.248 309.701L940.975 331 983.999 322.711C978.068 314.03 972.798 304.916 968.234 295.445 965.025 286.888 969.036 277.533 967.967 266.038 966.897 254.543 961.768 239.77 945.521 238.236 935.048 236.962 924.615 240.898 917.592 248.774Z" fill="#FFE0BC" fill-rule="evenodd"/><path d="M931.485 464.356C940.937 462.834 950.57 462.834 960.022 464.356 977.74 466.741 1004 461.731 1004 461.731 1004 461.731 993.239 405.924 993.899 380.611 994.558 355.297 996.549 327.992 996.549 327.992L949.366 320C949.366 320 937.943 324.125 931.47 342.647 924.997 361.17 926.038 441.154 931.485 464.356Z" fill="#FFD04D" fill-rule="evenodd"/><path d="M946.076 309C942.672 312.514 931.463 317.025 931.463 322.042 931.463 327.058 922.696 370.202 923.193 379.233 923.689 388.264 926.897 422.572 924.95 433.106 923.594 444.349 922.943 455.671 923.003 467L931.463 464.993C931.463 464.993 929.03 405.324 931.463 383.27 933.896 361.216 948.999 320.562 948.999 320.562L943.322 318.554Z" fill="#133A50" fill-rule="evenodd"/><path d="M963.105 320.687 948.813 320.188C948.813 320.188 943.999 342.174 943.999 384.51 944.717 412.528 947.161 440.476 951.318 468.195 959.731 471.096 968.537 472.706 977.435 472.97 986.523 473.252 995.564 471.547 1003.92 467.973 1002.47 445.051 1002.47 422.061 1003.92 399.139 1006.43 365.161 1015.53 357.434 1013.77 335.178 1010.86 298.267 977.367 311.193 977.367 311.193Z" fill="#133A50" fill-rule="evenodd"/><path d="M948.999 320.012C948.999 320.012 972.403 309.014 975.963 302 977.233 304.843 977.924 307.902 977.999 311.006 977.491 314.008 955.106 335 955.106 335Z" fill="#FFD04D" fill-rule="evenodd"/><path d="M968.388 322.998C974.039 294.591 958.895 286.238 942.324 276.111 931.626 269.111 922.632 259.816 915.999 248.906 915.999 248.906 922.403 228.116 941.126 223.853 959.848 219.59 983.736 231.222 989.775 260.633 994.054 281.483 999.652 288.833 1013.83 299.012 1030.93 311.291 1036.06 342.583 1016.09 357.663 997.633 371.613 1008.31 338.481 1001.46 319.881 1000.3 316.733 985.943 332.731 977.927 335.378 969.526 338.158 967.481 327.57 968.388 322.998Z" fill="#B56537" fill-rule="evenodd"/><path d="M946.186 309C945.409 312.935 946.456 317.028 948.999 319.996L941.039 332C941.039 332 938.698 322.505 941.039 318.495 943.381 314.485 946.186 309 946.186 309Z" fill="#FFD04D" fill-rule="evenodd"/><path d="M864.194 687C864.194 687 864.645 691.159 871.314 693.036 875.434 694.01 879.755 692.612 882.52 689.408L883.999 702.995 862.7 718 844.999 718 854.57 707.387Z" fill="#133A50" fill-rule="evenodd"/><path d="M792.308 667C790.473 670.557 791.651 674.963 795 677.066 798.696 679.343 803.322 679.324 806.999 677.016L804.216 691 752.999 674.586Z" fill="#133A50" fill-rule="evenodd"/><path d="M990.299 327.637C985.369 339.48 970.896 378.376 961.671 401.962 961.671 401.962 894.661 423.349 865.999 430.542L875.948 441C875.948 441 957.667 428.533 975.402 420.301 993.395 411.953 1010.41 354.532 1013.44 339.465 1017.79 317.683 995.607 314.848 990.299 327.637Z" fill="#FFE0BC" fill-rule="evenodd"/><path d="M873.008 432.62 865.982 431.001C865.982 431.001 851.532 429.703 846.907 429.055 842.281 428.408 836.736 433.596 830.43 435.542 826.074 437.002 821.903 438.949 817.999 441.343L823.047 441.343 833.342 443 842.627 441.343C848.423 440.798 854.258 440.798 860.053 441.343 865.354 441.897 870.699 441.897 875.999 441.343Z" fill="#FFE0BC" fill-rule="evenodd"/><path d="M732.762 195.572 750.999 237.024 746.321 239 728.077 197.526C727.87 197.056 728.09 196.51 728.569 196.306L728.569 196.306 731.525 195.071C732.008 194.875 732.561 195.099 732.762 195.572Z" fill="#364469" fill-rule="evenodd"/><path d="M732.065 205 734.999 203.704 730.063 191.988C729.713 191.159 728.774 190.777 727.964 191.134L727.964 191.134C727.154 191.492 726.781 192.454 727.129 193.284Z" fill="#364469" fill-rule="evenodd"/><path d="M697.999 244.9C697.999 244.9 715.732 294.248 722.174 293.999 727.01 293.822 759.438 248.942 764.657 241.17 769.875 233.399 779.999 215.144 779.999 215.144L766.806 211C766.806 211 744.118 238.695 738.272 243.668 732.425 248.64 729.989 250.505 729.989 250.505L723.234 231.824Z" fill="#F7D4B2" fill-rule="evenodd"/><path d="M707.521 194.247C714.759 196.146 717.259 202.493 720.369 215.599 722.472 224.212 725.018 232.714 727.999 241.072L704.197 252C704.197 252 699.903 228.705 698.319 213.99 696.736 199.275 701.207 192.59 707.521 194.247Z" fill="#00B050" fill-rule="evenodd"/><path d="M609.999 699 609.999 717 643.999 717C643.999 717 642.721 710.484 626.596 707.48L624.224 699.004 609.999 699.004Z" fill="#133A50" fill-rule="evenodd"/><path d="M680.999 699 680.999 717 713.999 717C713.999 717 712.758 710.484 697.108 707.48L694.805 699.004 680.999 699.004Z" fill="#133A50" fill-rule="evenodd"/><path d="M617.146 349C617.146 349 611.002 404.2 610.786 463.498 610.57 522.797 606.999 699 606.999 699L631.239 699C631.239 699 656.237 528.726 665.305 490.607 674.372 452.489 697.999 349.715 697.999 349.715Z" fill="#133A50" fill-rule="evenodd"/><path d="M654.023 148C654.023 148 652.465 160.026 651.184 166.146 650.545 170 649.441 173.765 647.898 177.359 643.399 183.337 638.416 188.941 632.999 194.117 632.999 194.117 672.936 215 684.675 215 696.415 215 692.3 191.675 692.3 191.675 692.3 191.675 679.498 181.655 677.589 176.591 676.018 170.114 675.024 163.513 674.619 156.864Z" fill="#FFE0BC" fill-rule="evenodd"/><path d="M669.999 409.492C669.999 409.492 674.481 500.135 675.374 517.979 676.266 535.824 675.374 699.73 675.374 699.73 675.374 699.73 697.766 700.338 697.766 699.73 697.766 699.121 718.877 526.879 721.611 482.902 724.345 438.925 722.731 386.796 726.373 380.712 730.015 374.629 716.572 349 716.572 349L684.88 357.498Z" fill="#133A50" fill-rule="evenodd"/><path d="M641.737 182 600.999 199.673C600.999 199.673 609.057 232.86 609.505 246.05 609.954 259.241 614.655 363.438 614.655 363.438 614.655 363.438 627.168 382.938 687.371 375.173 710.585 372.165 721.999 360.795 721.999 360.795 721.999 360.795 715.492 246.05 713.698 232.86 711.904 219.669 707.427 193.292 707.427 193.292L687.779 187.212 679.766 199.244Z" fill="#00B050" fill-rule="evenodd"/><path d="M643.815 175 680 199.461 670.053 211 642 182.166 643.815 175Z" fill="#00B050" fill-rule="evenodd"/><path d="M680 199.78 690 208 688.115 187.387 684.372 182 680 199.78Z" fill="#00B050" fill-rule="evenodd"/><path d="M717.877 270.665 752.923 280.732C756.623 281.698 760.504 279.99 762.271 276.615L796.399 204.109C797.771 201.443 796.709 198.176 794.028 196.812 793.633 196.611 793.215 196.459 792.783 196.359L758.045 186.154C751.719 185.536 748.557 186.764 746.954 190.102L712.762 262.058C711.147 265.434 711.761 267.784 717.877 270.665Z" fill="#97A3CC" fill-rule="evenodd"/><path d="M719.529 271.54 754.744 281.722C758.463 282.712 762.371 280.994 764.153 277.586L798.402 204.406C799.774 201.713 798.701 198.419 796.006 197.048 795.608 196.845 795.186 196.692 794.751 196.592L759.84 186.315C756.024 185.246 751.975 186.964 750.096 190.452L715.603 263.399C714.192 266.221 715.337 269.651 718.161 271.062 718.595 271.278 719.054 271.439 719.529 271.54Z" fill="#EEF4FB" fill-rule="evenodd"/><path d="M618.999 252.486C618.999 252.486 651.312 306.086 655.623 307.932 659.933 309.778 715.685 273.501 726.161 266.731 736.637 259.961 745.389 253.303 746.688 252.232 748.576 248.422 750.023 244.409 750.999 240.27 750.466 239.665 749.977 239.021 749.536 238.346L748.151 239.092 748.898 234.746 747.588 232.285 746.319 232.706 745.893 228.309 743.967 225C743.967 225 738.477 231.207 735.089 234.899 732.843 237.289 730.368 239.453 727.699 241.36 727.856 239 727.856 236.632 727.699 234.273 727.674 232.513 727.881 230.757 728.315 229.051L722.914 232.296C722.914 232.296 718.156 247.298 717.23 248.484 714.225 255.686 708.29 261.265 700.913 263.821 689.121 268.462 677.105 272.511 664.908 275.951 665.823 275.821 643.829 235.895 643.829 235.895Z" fill="#FFE0BC" fill-rule="evenodd"/><path d="M598.834 220.421C601.938 235.057 623.524 267 623.524 267L649.999 247.304C649.999 247.304 639.633 226.737 633.848 215.948 627.445 204.015 621.475 189.521 610.145 193.751 599.207 197.823 596.348 208.686 598.834 220.421Z" fill="#00B050" fill-rule="evenodd"/><path d="M700.863 116.546C703.68 119.096 708.353 124.226 707.977 127.219 707.555 132.881 706.722 138.505 705.483 144.046 703.981 149.007 701.085 162.018 698.963 167.73 696.84 173.442 694.391 181.279 692.633 182 685.74 181.904 678.927 180.502 672.556 177.869 669.653 175.74 654.271 158.838 657.531 146.325 657.531 146.325 653.497 146.851 651.022 134.493 650.376 131.271 663.478 122.1 665.517 118.916 670.468 111.15 688.532 117.264 693.689 117.662 696.137 118.128 698.672 117.734 700.863 116.546Z" fill="#FFE0BC" fill-rule="evenodd"/><path d="M707.315 127.256C706.894 124.923 704.678 123.376 702.366 123.801L702.333 123.801C696.397 124.618 690.358 124.194 684.592 122.555 680.699 121.36 676.988 119.633 673.56 117.423 672.978 120.821 671.755 124.074 669.957 127.007 667.982 129.264 666.59 131.979 665.907 134.91 665.186 136.54 663.744 137.73 662.017 138.12 662.017 138.12 660.577 131.15 657.482 130.661 651.347 129.69 652.089 138.048 654.614 140.769 656.229 142.49 657.96 144.097 659.794 145.578 659.35 147.704 658.692 149.778 657.829 151.768 656.437 154.065 654.743 156.162 652.794 158 652.794 158 651.175 141.378 647.278 133.754 643.381 126.13 643.623 112.105 654.875 109.155 656.844 101.313 664.271 96.1607 672.232 97.1132 687.019 97.7491 698.831 103.71 705.35 103.078 708.278 103.045 711.164 102.366 713.805 101.087 713.805 101.087 717.06 111.876 712.82 117.596 710.522 120.524 708.667 123.779 707.315 127.256Z" fill="#8B4200" fill-rule="evenodd"/><path d="M827 443 813 443 799 354 809.646 354 827 443Z" fill="#A6AEBA" fill-rule="evenodd"/><path d="M823 443 768.867 443 755 354 809.129 354 823 443Z" fill="#D2DCEB" fill-rule="evenodd"/><path d="M768 441 827 441 827 448 768 448Z" fill="#D2DCEB" fill-rule="evenodd"/><path d="M827 441 901 441 901 448 827 448Z" fill="#A6AEBA" fill-rule="evenodd"/><path d="M793.287 402.902C794.852 409.713 793.75 417.073 790.829 419.334 787.908 421.595 784.27 417.912 782.709 411.097 781.148 404.283 782.246 396.927 785.167 394.666 788.088 392.404 791.714 396.092 793.287 402.902Z" fill="#A6AEBA" fill-rule="evenodd"/><path d="M296 448 964 448 964 461 296 461Z" fill="#DBDBDB" fill-rule="evenodd"/><path d="M367 717 373.444 717 426 461 412.688 461 367 717Z" fill="#DBDBDB" fill-rule="evenodd"/><path d="M863 717 856.552 717 804 461 817.313 461 863 717Z" fill="#DBDBDB" fill-rule="evenodd"/><path d="M801 104 891 104 891 193 801 193Z" fill="#E9F2F4" fill-rule="evenodd"/><path d="M815 117 846 117 846 181 815 181Z" fill="#FFFFFF" fill-rule="evenodd"/><path d="M801 87 891 87 891 104 801 104Z" stroke="#E9F2F4" stroke-width="3.74898" stroke-miterlimit="8" fill="none" fill-rule="evenodd"/><path d="M880 128C880 134.075 875.075 139 869 139 862.925 139 858 134.075 858 128 858 121.925 862.925 117 869 117 875.075 117 880 121.925 880 128Z" fill="#00A0B4" fill-rule="evenodd"/><path d="M868.353 132 863 125.4 867.85 127.342 879 118 868.353 132Z" fill="#FFFFFF" fill-rule="evenodd"/><path d="M880 161C880 167.075 875.075 172 869 172 862.925 172 858 167.075 858 161 858 154.925 862.925 150 869 150 875.075 150 880 154.925 880 161Z" fill="#00A0B4" fill-rule="evenodd"/><path d="M868.353 165 863 158.398 867.85 160.343 879 151 868.353 165Z" fill="#FFFFFF" fill-rule="evenodd"/></g></svg>